<?xml version="1.0" encoding="UTF-8"?><svg id="_レイヤー_2" xmlns="http://www.w3.org/2000/svg" viewBox="0 0 160 160"><defs><style>.cls-1{fill:#fff;}</style></defs><g id="_レイヤー_1-2"><circle cx="80" cy="80" r="80"/><path class="cls-1" d="M63.33,102.51c.82-.16,2.38-.49,4.69-.98l.86,22.07c-9.46,1.55-17.5,2.8-24.13,3.74-6.62.94-13.43,1.7-20.42,2.27-.58-5.15-1.17-9.36-1.79-12.63-.62-3.27-1.54-6.5-2.78-9.68,2.8,0,4.85-.04,6.17-.12v-27.95h17.65v26.6l2.71-.37v-28.93h-21.84v-39.47h43.19v39.47h-4.32v3.31h4.2v18.88h-4.2v3.8ZM49.01,53.35h-6.05v7.11h6.05v-7.11ZM138.23,52.86c-1.48.25-2.51.53-3.09.86-.58.33-.95.53-1.11.61-5.51,2.7-10.41,4.9-14.68,6.62h17.77v53.57c0,4.17-.47,7.09-1.42,8.76-.95,1.68-2.74,2.88-5.37,3.62-2.63.74-7.65,1.59-15.05,2.57,0-4.66-.86-9.85-2.59-15.57v12.99h-18.14v-18.39h-4.81v18.51h-19.5V60.95h12.22l-7.4-3.19,4.94-4.66h-10v-16.92h68.24v16.67ZM89.74,79.58h6.54v-2.94h-6.54v2.94ZM96.28,92.82h-6.54v2.94h6.54v-2.94ZM99.36,53.11l6.54,3.56c3.46-1.47,6-2.65,7.65-3.56h-14.19ZM110.71,76.64v2.94h6.29v-2.94h-6.29ZM110.71,92.82v2.94h6.29v-2.94h-6.29ZM112.69,111.58h2.41c1.11,0,1.75-.18,1.91-.55.16-.37.2-1.2.12-2.51h-4.44v3.06Z"/></g></svg>